<svg id="图层_1" data-name="图层 1" xmlns="http://www.w3.org/2000/svg" xmlns:xlink="http://www.w3.org/1999/xlink" viewBox="0 0 32 32"><defs><style>.cls-1{fill:url(#未命名的渐变_3);}.cls-2{fill:url(#未命名的渐变_2);}</style><linearGradient id="未命名的渐变_3" x1="0.08" y1="850.11" x2="32.03" y2="850.11" gradientTransform="translate(0 -834.11)" gradientUnits="userSpaceOnUse"><stop offset="0" stop-color="#85fab0"/><stop offset="0.57" stop-color="#72c8df"/><stop offset="0.99" stop-color="#66a6ff"/></linearGradient><linearGradient id="未命名的渐变_2" x1="9.55" y1="848.72" x2="22.57" y2="848.72" gradientTransform="translate(0 -834.11)" gradientUnits="userSpaceOnUse"><stop offset="0" stop-color="#89f7fe"/><stop offset="0.55" stop-color="#75c8ff"/><stop offset="0.99" stop-color="#66a6ff"/></linearGradient></defs><title>logo</title><path class="cls-1" d="M15.92,32a7.71,7.71,0,0,1-5.85-2.45L2.44,22a8.51,8.51,0,0,1,0-11.92l7.63-7.67a8.4,8.4,0,0,1,11.86,0l7.63,7.67a8.51,8.51,0,0,1,0,11.92l-7.63,7.67A8.91,8.91,0,0,1,15.92,32Zm0-29.88a5.87,5.87,0,0,0-4.22,1.8L4.06,11.76a6.13,6.13,0,0,0,0,8.48h0l7.64,7.68a6.06,6.06,0,0,0,8.44,0h0l7.64-7.68a6.13,6.13,0,0,0,0-8.48h0L20.14,4.08A5.24,5.24,0,0,0,15.92,2.12Z" transform="translate(0)"/><path class="cls-2" d="M15.92,5.55c-.16.33-1.14,2-2.93,4.74C10.56,14,7.63,18,11.05,21.55a7,7,0,0,0,4.87,2.12h0a7.08,7.08,0,0,0,5-2.12c3.42-3.43.49-7.51-1.94-11.26a55.45,55.45,0,0,1-3.09-4.74" transform="translate(0)"/></svg>