<?xml version="1.0" encoding="utf-8"?>
<!-- Generator: Adobe Illustrator 25.4.1, SVG Export Plug-In . SVG Version: 6.00 Build 0)  -->
<svg version="1.1" id="图层_1" xmlns="http://www.w3.org/2000/svg" xmlns:xlink="http://www.w3.org/1999/xlink" x="0px" y="0px"
	 viewBox="0 0 192.1 37.4" style="enable-background:new 0 0 192.1 37.4;" xml:space="preserve">
<style type="text/css">
	.st0{fill:#2053CD;}
	.st1{fill:#00A0FF;}
	.st2{fill:#FFFFFF;}
</style>
<g>
	<polygon class="st0" points="39.4,28.4 39.4,15 24.6,9.4 35.4,5.3 47.2,9.7 47.2,9.6 47.2,31.3 39.5,36.9 12.7,26.5 23.6,22.1 	"/>
	<polygon class="st1" points="7.9,28.4 7.9,15 34.4,4.7 23.7,0.5 0,9.7 0,9.6 0,31.3 7.7,36.9 22.6,31.2 11.7,27 	"/>
</g>
<g>
	<path class="st2" d="M55.5,8.1V4.7h9.7v3.5l-3.1,13.4c-0.5,2.1-1.7,3.1-3.6,2.9h-3.3v-3.4h1.6c0.7,0.1,1.1-0.1,1.2-0.7l3-12.4H55.5
		z M65.8,0.6h4.1v22.1c0.2,2.2-0.8,3.2-3.1,3h-4.7v-3.3h3.1c0.4,0.1,0.5-0.1,0.5-0.6V0.6z M72.8,21.5l-2.4-12l4.6-7.8H80l-5.1,8.4
		l1.9,9.8c0.1,1.2,0.7,1.6,1.5,1.4h1.8v3.4h-3.9C74.2,25,73,24,72.8,21.5L72.8,21.5z"/>
	<path class="st2" d="M83.3,3.1h2.3c0.5,0.1,0.9-0.2,1.1-0.6l0.9-1.7h4.1l-0.5,1h16.4v2.6l-9.2,5.2l0.8,0.4c0.6,0.3,1.4,0.5,2.1,0.3
		h6.5v3h-8.1c-1.1,0.2-2.2-0.1-3-0.8l-1.8-1l-1.3,0.9c-0.6,0.4-1.3,0.6-2.1,0.7h2.3l-0.5,1.7h14.3v8.6c0,1.3-0.5,1.9-1.5,1.9h-6.5
		v-2.9h3.4c0.6,0.1,0.9-0.3,0.9-1v-3.3H92.4L91,23.5c-0.1,1-0.9,1.8-1.9,1.7h-5.8v-3h3.5c0.4,0.1,0.8-0.2,1-0.9l0.8-3.3h-5.2v-3.3h6
		l0.4-1.6h-6.4v-2.9h5.7c0.4,0,0.7-0.1,1.1-0.2l1-0.5l-4.9-2.9h6.7l1.5,0.9l5-2.5h-9.5c-0.4,0.7-1.2,1.2-2.1,1.1h-4.5V3.1z"/>
	<path class="st2" d="M135.5,4.9h-24.3V1.5h24.3V4.9z M111.2,22.9l3.7-9.5h-3.6V9.9h24.3v3.5h-16.7l-3.3,8.6h15.6
		c0.3,0,0.4-0.1,0.4-0.4v-4h3.8v5.2c0,1.7-0.8,2.6-2.5,2.6h-21.6L111.2,22.9z"/>
	<path class="st2" d="M139.1,0.9h24.3v3.3h-9.9V19h10v3.4h-10v2.9h-4.4v-2.9H139V19h10.2V4.3h-10L139.1,0.9z M141.1,15.7l-1.6-10
		h4.3l1.4,8.1c0.1,0.5,0.3,0.7,0.7,0.6h2.4v3.2h-4.8c-1.1,0.2-2.1-0.5-2.3-1.5C141.1,16,141.1,15.9,141.1,15.7z M157.4,13.7l1.5-8h4
		l-1.4,9.7c-0.2,1.6-1,2.3-2.4,2.3h-4.6v-3.3h2.2C157.2,14.3,157.4,14.1,157.4,13.7z"/>
	<path class="st2" d="M166.4,7.6l4.9-6.6h4.7l-4.9,6.8h15c0.4,0.1,0.6-0.1,0.6-0.9v-3h3.8v4.3c0.2,2.2-0.7,3.2-2.9,2.9h-21.3V7.6z
		 M166.5,25.8v-13h23.9v9.6c0.1,2.4-1.1,3.6-3.7,3.3H166.5z M186.7,16.2h-16.2v6.4h15.3c0.6,0.1,1-0.3,1-1.1L186.7,16.2z"/>
	<path class="st2" d="M57.3,35.3l1.1-4.3h1.4l1,4.3l0,0l0.9-4.3h1.1l-1.4,5.6h-1.3l-1-4.3L58,36.6h-1.4L55.2,31h1.4L57.3,35.3z"/>
	<path class="st2" d="M64.2,36.7H63l2.1-5.6h1.4l2,5.6h-1.2l-0.4-1.2h-2.3L64.2,36.7z M64.9,34.6h1.6l-0.8-2.4l0,0L64.9,34.6z"/>
	<path class="st2" d="M68.6,32v-0.9h4.6V32h-1.7v4.7h-1.2V32H68.6z"/>
	<path class="st2" d="M73.7,36.7v-5.6h3.8V32h-2.5v1.3h2.4v0.9h-2.4v1.5h2.6v0.9H73.7z"/>
	<path class="st2" d="M79.7,34.4v2.3h-1.2v-5.6h2.4c1.3,0,1.9,0.5,1.9,1.4c0.1,0.7-0.5,1.3-1.2,1.4l0,0c0.6,0,0.9,0.5,1,1.2
		c0,0.1,0,0.1,0,0.2c0,0.5,0.1,0.9,0.3,1.3h-1.3c-0.1-0.5-0.2-1-0.1-1.5c-0.1-0.5-0.2-0.7-0.5-0.7L79.7,34.4z M79.7,32v1.4h1
		c0.4,0.1,0.8-0.2,0.8-0.6c0-0.1,0-0.1,0-0.2c0-0.5-0.3-0.7-0.9-0.7L79.7,32z"/>
	<path class="st2" d="M86.5,36.7h-1.2l2-5.6h1.4l2,5.6h-1.2l-0.4-1.2H87L86.5,36.7z M87.3,34.6h1.6l-0.8-2.4l0,0L87.3,34.6z"/>
	<path class="st2" d="M92.6,36.7h-1.2v-5.6h3.6V32h-2.4v1.3H95v0.9h-2.3L92.6,36.7z"/>
	<path class="st2" d="M97,36.7h-1.2v-5.6h3.6V32H97v1.3h2.3v0.9H97V36.7z"/>
	<path class="st2" d="M100.8,36.7h-1.2l2-5.6h1.4l2,5.6h-1.2l-0.4-1.2h-2.2L100.8,36.7z M101.5,34.6h1.6l-0.8-2.4l0,0L101.5,34.6z"
		/>
	<path class="st2" d="M106.8,31.1v5.6h-1.2v-5.6H106.8z"/>
	<path class="st2" d="M109,34.4v2.3h-1.2v-5.6h2.4c1.3,0,1.9,0.5,1.9,1.4c0.1,0.7-0.5,1.3-1.2,1.4l0,0c0.6,0,0.9,0.5,1,1.2
		c0,0.1,0,0.1,0,0.2c0,0.5,0.1,0.9,0.3,1.3H111c-0.1-0.5-0.1-1-0.1-1.5c-0.1-0.5-0.2-0.7-0.5-0.7L109,34.4z M109,32v1.4h1
		c0.4,0.1,0.8-0.2,0.8-0.6c0-0.1,0-0.1,0-0.2c0-0.5-0.3-0.7-0.9-0.7L109,32z"/>
	<path class="st2" d="M117.1,32.7H116c0-0.4-0.3-0.8-0.8-0.9c-0.1,0-0.1,0-0.2,0c-0.6,0-0.9,0.2-0.9,0.7c0,0.4,0.3,0.7,1,0.8h0.1
		c1.3,0.3,2,0.8,2,1.5c0,1.2-0.8,1.8-2.4,1.8c-1.6,0-2.2-0.6-2.2-1.9h1.2c0,0.7,0.3,1,0.9,1c0.6,0,1-0.2,1.1-0.7
		c0-0.4-0.3-0.6-1.1-0.8h-0.2c-1.3-0.3-1.9-0.8-1.9-1.6c0-1.1,0.8-1.7,2.3-1.8C116.4,31,117.1,31.6,117.1,32.7z"/>
	<path class="st2" d="M124.8,32.9h-1.3c0-0.6-0.4-1-1-1.1c0,0-0.1,0-0.1,0c-0.7,0-1,0.7-1.1,2.1c0,1.3,0.4,2,1.1,2
		c0.5,0.1,1-0.3,1.1-0.9c0-0.1,0-0.1,0-0.2h1.3c-0.1,1.2-0.9,1.9-2.4,1.9c-1.5,0-2.3-1-2.3-2.9s0.8-2.9,2.3-2.9
		C123.9,30.9,124.7,31.6,124.8,32.9z"/>
	<path class="st2" d="M129.1,36.7h-3.6v-5.6h1.2v4.7h2.4V36.7z"/>
	<path class="st2" d="M132.2,36.8c-1.4,0.1-2.6-0.9-2.7-2.3c0-0.2,0-0.4,0-0.5c0-1.9,0.9-2.9,2.7-2.9c1.8-0.1,2.6,1,2.7,2.9
		C135,35.8,134,36.7,132.2,36.8z M132.2,31.8c-1,0-1.4,0.7-1.4,2.1s0.5,2.1,1.4,2s1.4-0.7,1.4-2S133.2,31.8,132.2,31.8z"/>
	<path class="st2" d="M139.5,31.1h1.3v3.5c0,1.4-0.9,2.1-2.4,2.2s-2.4-0.8-2.5-2.2v-3.5h1.2v3.1c-0.1,1.3,0.3,1.9,1.2,1.8
		s1.3-0.5,1.2-1.8L139.5,31.1z"/>
	<path class="st2" d="M141.9,36.7v-5.6h1.9c1.4-0.2,2.7,0.8,2.9,2.2c0,0.2,0,0.4,0,0.7c0.2,1.4-0.7,2.7-2.1,2.9c-0.2,0-0.5,0-0.7,0
		L141.9,36.7z M143,32v3.7h0.6c1.1,0,1.7-0.6,1.6-1.9s-0.5-1.9-1.6-1.9L143,32z"/>
	<path class="st2" d="M150.8,36.7h-1.2v-5.6h1.7c1.5,0,2.3,0.6,2.3,1.7c0,1.2-0.7,1.7-1.9,1.7h-0.9V36.7z M150.8,32v1.6
		c0.1,0,0.2,0,0.4,0c0.8,0.1,1.2-0.2,1.2-0.8S152,32,151.2,32C151,32,150.9,32,150.8,32z"/>
	<path class="st2" d="M158,36.7h-3.6v-5.6h1.2v4.7h2.4V36.7z"/>
	<path class="st2" d="M159.4,36.7h-1.2l2-5.6h1.4l2,5.6h-1.2l-0.4-1.2h-2.2L159.4,36.7z M160.1,34.6h1.6l-0.8-2.4l0,0L160.1,34.6z"
		/>
	<path class="st2" d="M163.8,32v-0.9h4.6V32h-1.7v4.7h-1.2V32H163.8z"/>
	<path class="st2" d="M170.2,36.7H169v-5.6h3.6V32h-2.4v1.3h2.3v0.9h-2.3V36.7z"/>
	<path class="st2" d="M175.8,36.8c-1.4,0.1-2.6-0.9-2.7-2.3c0-0.2,0-0.4,0-0.5c0-1.9,0.9-2.9,2.7-2.9c1.8-0.1,2.6,1,2.7,2.9
		C178.5,35.8,177.5,36.7,175.8,36.8z M175.8,31.8c-1,0-1.4,0.7-1.4,2.1s0.5,2.1,1.4,2c1,0,1.4-0.7,1.4-2S176.7,31.8,175.8,31.8z"/>
	<path class="st2" d="M180.5,34.4v2.3h-1.2v-5.6h2.4c1.3,0,1.9,0.5,1.9,1.4c0.1,0.7-0.4,1.3-1.1,1.4l0,0c0.5,0,0.9,0.5,1,1.2
		c0,0.1,0,0.1,0,0.2c0,0.5,0.1,0.9,0.3,1.3h-1.3c-0.1-0.5-0.2-1-0.2-1.5c-0.1-0.5-0.2-0.7-0.5-0.7L180.5,34.4z M180.5,32v1.4h1
		c0.4,0.1,0.8-0.2,0.8-0.6c0-0.1,0-0.1,0-0.2c0-0.5-0.3-0.7-0.8-0.7L180.5,32z"/>
	<path class="st2" d="M189.7,31.9l-1.6,4.8h-1l-1.4-4.8l0,0v4.8h-1.1v-5.6h2l1.2,4.1l0,0l1.3-4.1h1.9v5.6h-1.1L189.7,31.9
		L189.7,31.9z"/>
</g>
</svg>
